<svg version="1.1" id="Layer_1" xmlns="http://www.w3.org/2000/svg" xmlns:xlink="http://www.w3.org/1999/xlink" viewBox="0 0 64 64" enable-background="new 0 0 64 64" xml:space="preserve" fill="#000000"><g id="SVGRepo_bgCarrier" stroke-width="0"></g><g id="SVGRepo_tracerCarrier" stroke-linecap="round" stroke-linejoin="round" stroke="#CCCCCC" stroke-width="12.8"> <polygon fill="none" stroke="#ffffff" stroke-width="4.224" stroke-miterlimit="10" points="42,15 42,61 1,61 1,3 30,3 "></polygon> <polygon fill="none" stroke="#ffffff" stroke-width="4.224" stroke-miterlimit="10" points="55,1 55,54 59,62 63,54 63,1 "></polygon> <line fill="none" stroke="#ffffff" stroke-width="4.224" stroke-miterlimit="10" x1="8" y1="13" x2="20" y2="13"></line> <line fill="none" stroke="#ffffff" stroke-width="4.224" stroke-miterlimit="10" x1="8" y1="23" x2="35" y2="23"></line> <line fill="none" stroke="#ffffff" stroke-width="4.224" stroke-miterlimit="10" x1="8" y1="31" x2="35" y2="31"></line> <line fill="none" stroke="#ffffff" stroke-width="4.224" stroke-miterlimit="10" x1="8" y1="39" x2="35" y2="39"></line> <line fill="none" stroke="#ffffff" stroke-width="4.224" stroke-miterlimit="10" x1="8" y1="47" x2="35" y2="47"></line> <polyline fill="none" stroke="#ffffff" stroke-width="4.224" stroke-miterlimit="10" points="42,15 30,15 30,3 "></polyline> <line fill="none" stroke="#ffffff" stroke-width="4.224" stroke-miterlimit="10" x1="55" y1="11" x2="63" y2="11"></line> </g><g id="SVGRepo_iconCarrier"> <polygon fill="none" stroke="#ffffff" stroke-width="4.224" stroke-miterlimit="10" points="42,15 42,61 1,61 1,3 30,3 "></polygon> <polygon fill="none" stroke="#ffffff" stroke-width="4.224" stroke-miterlimit="10" points="55,1 55,54 59,62 63,54 63,1 "></polygon> <line fill="none" stroke="#ffffff" stroke-width="4.224" stroke-miterlimit="10" x1="8" y1="13" x2="20" y2="13"></line> <line fill="none" stroke="#ffffff" stroke-width="4.224" stroke-miterlimit="10" x1="8" y1="23" x2="35" y2="23"></line> <line fill="none" stroke="#ffffff" stroke-width="4.224" stroke-miterlimit="10" x1="8" y1="31" x2="35" y2="31"></line> <line fill="none" stroke="#ffffff" stroke-width="4.224" stroke-miterlimit="10" x1="8" y1="39" x2="35" y2="39"></line> <line fill="none" stroke="#ffffff" stroke-width="4.224" stroke-miterlimit="10" x1="8" y1="47" x2="35" y2="47"></line> <polyline fill="none" stroke="#ffffff" stroke-width="4.224" stroke-miterlimit="10" points="42,15 30,15 30,3 "></polyline> <line fill="none" stroke="#ffffff" stroke-width="4.224" stroke-miterlimit="10" x1="55" y1="11" x2="63" y2="11"></line> </g></svg>